<svg version="1.2" baseProfile="tiny-ps" xmlns="http://www.w3.org/2000/svg" viewBox="0 0 1200 1200" width="1200" height="1200">
	<title>ORFI0N1-ai</title>
	<defs>
		<linearGradient id="grd1" gradientUnits="userSpaceOnUse"  x1="883.724" y1="852.177" x2="874.724" y2="852.177">
			<stop offset="0" stop-color="#ffffff"  />
			<stop offset="1" stop-color="#9ca0ad"  />
		</linearGradient>
		<linearGradient id="grd2" gradientUnits="userSpaceOnUse"  x1="323.276" y1="905.63" x2="323.276" y2="769.98">
			<stop offset="0" stop-color="#2b2d2d"  />
			<stop offset="0.996" stop-color="#8f9a98"  />
		</linearGradient>
		<linearGradient id="grd3" gradientUnits="userSpaceOnUse"  x1="391.597" y1="750.909" x2="615.669" y2="544.725">
			<stop offset="0.004" stop-color="#202732"  />
			<stop offset="1" stop-color="#29323e"  />
		</linearGradient>
		<radialGradient id="grd4" gradientUnits="userSpaceOnUse"  cx="656.709" cy="771.931" r="41.876">
			<stop offset="0" stop-color="#ebebeb"  />
			<stop offset="1" stop-color="#9babb6"  />
		</radialGradient>
		<linearGradient id="grd5" gradientUnits="userSpaceOnUse"  x1="645.792" y1="772.722" x2="661.764" y2="772.722">
			<stop offset="0.004" stop-color="#202732"  />
			<stop offset="1" stop-color="#29323e"  />
		</linearGradient>
		<radialGradient id="grd6" gradientUnits="userSpaceOnUse"  cx="549.154" cy="771.931" r="41.876">
			<stop offset="0" stop-color="#ebebeb"  />
			<stop offset="1" stop-color="#9babb6"  />
		</radialGradient>
		<linearGradient id="grd7" gradientUnits="userSpaceOnUse"  x1="538.236" y1="776.967" x2="554.208" y2="776.967">
			<stop offset="0.004" stop-color="#202732"  />
			<stop offset="1" stop-color="#29323e"  />
		</linearGradient>
		<linearGradient id="grd8" gradientUnits="userSpaceOnUse"  x1="286.214" y1="350.238" x2="567.364" y2="239.922">
			<stop offset="0" stop-color="#ff6532"  />
			<stop offset="1" stop-color="#ffac2e"  />
		</linearGradient>
		<linearGradient id="grd9" gradientUnits="userSpaceOnUse"  x1="315.534" y1="818.102" x2="873.412" y2="643.038">
			<stop offset="0" stop-color="#ff6532"  />
			<stop offset="1" stop-color="#ffac2e"  />
		</linearGradient>
		<linearGradient id="grd10" gradientUnits="userSpaceOnUse"  x1="353.313" y1="461.487" x2="540.803" y2="296.401">
			<stop offset="0" stop-color="#b1c0cc"  />
			<stop offset="1" stop-color="#ffffff"  />
		</linearGradient>
		<linearGradient id="grd11" gradientUnits="userSpaceOnUse"  x1="376.816" y1="617.628" x2="708.703" y2="513.48">
			<stop offset="0" stop-color="#b1c0cc"  />
			<stop offset="1" stop-color="#ffffff"  />
		</linearGradient>
		<linearGradient id="grd12" gradientUnits="userSpaceOnUse"  x1="409.904" y1="833.136" x2="376.1" y2="725.415">
			<stop offset="0" stop-color="#8c6b58"  />
			<stop offset="0.996" stop-color="#ffffff"  />
		</linearGradient>
	</defs>
	<style>
		tspan { white-space:pre }
		.shp0 { fill: url(#grd1) } 
		.shp1 { fill: #8c97a1 } 
		.shp2 { fill: url(#grd2) } 
		.shp3 { fill: url(#grd3) } 
		.shp4 { fill: url(#grd4) } 
		.shp5 { fill: url(#grd5) } 
		.shp6 { fill: url(#grd6) } 
		.shp7 { fill: url(#grd7) } 
		.shp8 { fill: url(#grd8) } 
		.shp9 { fill: url(#grd9) } 
		.shp10 { fill: url(#grd10) } 
		.shp11 { fill: url(#grd11) } 
		.shp12 { mix-blend-mode: multiply;fill: url(#grd12) } 
	</style>
	<g id="Layer 1">
		<g id="&lt;Group&gt;">
			<g id="&lt;Group&gt;" style="mix-blend-mode: multiply">
				<path id="&lt;Mesh&gt;" fill-rule="evenodd" class="shp0" d="M334.59 852.34C334.72 852.48 334.79 852.61 334.96 852.76C335.09 852.91 335.24 853.07 335.43 853.24C335.59 853.4 335.78 853.57 335.99 853.74C337.64 855.15 340.03 856.62 342.61 857.9C347.82 860.51 353.8 862.64 359.87 864.51C372.09 868.22 384.92 870.95 397.82 873.29C423.68 877.9 450.03 880.86 476.42 883.07C476.43 883.07 476.44 883.07 476.44 883.07C517.47 886.44 558.74 887.84 599.99 887.87C600 887.87 600 887.87 600.01 887.87C641.26 887.84 682.53 886.44 723.56 883.07C723.56 883.07 723.57 883.07 723.58 883.07C723.58 883.07 726.88 882.78 733.48 882.2C740.07 881.6 749.96 880.66 763.08 879.08C776.18 877.46 792.58 875.28 811.84 871.45C821.44 869.51 831.81 867.16 842.41 863.79C847.67 862.09 853.06 860.13 857.88 857.65C860.26 856.43 862.53 855.03 864.09 853.68C864.49 853.34 864.81 853.02 865.08 852.73C865.23 852.58 865.3 852.45 865.43 852.32C865.46 852.27 865.49 852.23 865.53 852.18C865.49 852.13 865.46 852.08 865.43 852.03C865.3 851.9 865.23 851.78 865.08 851.63C864.81 851.34 864.49 851.01 864.09 850.68C862.53 849.32 860.26 847.92 857.88 846.7C853.06 844.22 847.67 842.26 842.41 840.56C831.81 837.19 821.44 834.84 811.84 832.89C792.58 829.07 776.18 826.89 763.08 825.27C749.96 823.69 740.07 822.74 733.48 822.14C726.88 821.56 723.58 821.28 723.58 821.28C723.57 821.28 723.56 821.28 723.56 821.28C682.53 817.91 641.26 816.5 600.01 816.47C600 816.47 600 816.47 599.99 816.47C558.74 816.5 517.47 817.91 476.44 821.28C476.44 821.28 476.43 821.28 476.42 821.28C450.03 823.48 423.68 826.45 397.82 831.06C384.92 833.39 372.09 836.13 359.87 839.84C353.8 841.71 347.82 843.84 342.61 846.45C340.03 847.74 337.64 849.2 335.99 850.61C335.78 850.78 335.59 850.95 335.43 851.12C335.24 851.28 335.09 851.44 334.96 851.59C334.79 851.75 334.72 851.88 334.59 852.01C334.53 852.07 334.51 852.13 334.47 852.18C334.51 852.23 334.53 852.28 334.59 852.34ZM882.98 857.05C882.49 858.61 881.8 860.12 880.93 861.51C879.97 863.02 879.25 863.88 878.39 864.84C877.56 865.75 876.72 866.56 875.88 867.27C872.54 870.14 869.28 872.01 866.12 873.66C859.79 876.89 853.75 879.03 847.91 880.93C836.23 884.64 825.4 887.06 815.39 889.1C795.36 893.08 778.63 895.29 765.25 896.94C751.86 898.56 741.81 899.51 735.11 900.13C728.41 900.71 725.06 901 725.06 901C725.06 901.01 725.05 901.01 725.04 901.01C683.4 904.43 641.7 905.84 600.01 905.87C600 905.87 600 905.87 599.99 905.87C558.3 905.84 516.6 904.43 474.96 901.01C474.95 901.01 474.94 901.01 474.94 901C448.13 898.76 421.35 895.76 394.64 891C381.28 888.58 367.94 885.77 354.6 881.72C347.93 879.65 341.26 877.34 334.52 873.98C331.15 872.27 327.74 870.33 324.29 867.42C323.86 867.06 323.43 866.68 322.99 866.25C322.57 865.86 322.13 865.41 321.71 864.95C321.28 864.51 320.86 863.97 320.44 863.47C320.23 863.22 320.03 862.91 319.82 862.63C319.58 862.29 319.33 861.95 319.12 861.59C318.23 860.18 317.53 858.66 317.03 857.08C316.55 855.49 316.32 853.85 316.28 852.2C316.28 852.18 316.28 852.17 316.28 852.16C316.32 850.51 316.55 848.86 317.03 847.27C317.53 845.69 318.23 844.17 319.12 842.76C319.33 842.4 319.58 842.07 319.82 841.72C320.03 841.44 320.23 841.14 320.44 840.89C320.85 840.39 321.28 839.85 321.71 839.41C322.13 838.94 322.56 838.5 322.99 838.1C323.43 837.68 323.86 837.3 324.29 836.93C327.74 834.02 331.15 832.08 334.52 830.37C341.26 827.01 347.93 824.7 354.6 822.63C367.94 818.58 381.27 815.77 394.63 813.34C421.35 808.58 448.13 805.58 474.94 803.34C474.94 803.34 474.95 803.34 474.96 803.34C516.6 799.92 558.3 798.5 599.99 798.47C600 798.47 600 798.47 600.01 798.47C641.7 798.5 683.4 799.92 725.04 803.34C725.05 803.34 725.06 803.34 725.06 803.34C725.06 803.34 728.41 803.63 735.11 804.21C741.81 804.83 751.86 805.78 765.25 807.4C778.64 809.05 795.36 811.27 815.39 815.25C825.4 817.28 836.24 819.71 847.91 823.42C853.75 825.32 859.79 827.47 866.12 830.7C869.29 832.35 872.54 834.22 875.89 837.08C876.72 837.79 877.56 838.61 878.39 839.52C879.25 840.47 879.98 841.34 880.93 842.84C881.8 844.24 882.49 845.74 882.98 847.31C883.46 848.89 883.68 850.53 883.72 852.18C883.68 853.83 883.46 855.47 882.98 857.05ZM332.17 852.18C332.17 852.18 332.93 852.18 334.47 852.18C332.93 852.18 332.17 852.17 332.17 852.17L332.17 852.18ZM867.83 852.18C867.83 851.76 867.68 851.35 867.46 851.01C867.68 851.35 867.83 851.76 867.83 852.18ZM867.46 851.01C867.44 850.96 867.4 850.93 867.37 850.89C867.4 850.93 867.44 850.96 867.46 851.01ZM867.2 850.65C867.04 850.48 866.93 850.3 866.74 850.11C866.93 850.3 867.04 850.48 867.2 850.65ZM865.56 848.98C863.78 847.43 861.39 845.97 858.91 844.7C861.39 845.97 863.78 847.43 865.56 848.98ZM858.91 844.7C853.9 842.13 848.43 840.14 843.1 838.42C848.43 840.14 853.9 842.13 858.91 844.7ZM843.1 838.42C832.36 835 821.94 832.65 812.28 830.69C821.94 832.65 832.36 835 843.1 838.42ZM812.28 830.69C792.93 826.84 776.49 824.66 763.35 823.03C776.49 824.66 792.93 826.84 812.28 830.69ZM763.35 823.03C750.2 821.45 740.29 820.51 733.68 819.9C740.29 820.51 750.2 821.45 763.35 823.03ZM733.68 819.9C727.07 819.32 723.76 819.03 723.76 819.03C723.76 819.03 727.07 819.32 733.68 819.9ZM723.76 819.03C723.76 819.03 723.7 819.78 723.58 821.28C723.7 819.78 723.76 819.03 723.76 819.03Z" />
			</g>
			<g id="&lt;Group&gt;">
				<path id="&lt;Compound Path&gt;" fill-rule="evenodd" class="shp1" d="M470.87 1052.13L470.87 1057.63C470.87 1064.41 467.6 1068.1 460.94 1068.1L457.79 1068.1L457.79 1084.02L451.14 1084.02L451.14 1041.66L460.94 1041.66C467.6 1041.66 470.87 1045.35 470.87 1052.13ZM457.79 1047.71L457.79 1062.05L460.94 1062.05C463.06 1062.05 464.21 1061.08 464.21 1058.06L464.21 1051.7C464.21 1048.68 463.06 1047.71 460.94 1047.71L457.79 1047.71Z" />
				<path id="&lt;Compound Path&gt;" fill-rule="evenodd" class="shp1" d="M494.71 1084.02L487.99 1084.02L486.84 1076.33L478.67 1076.33L477.52 1084.02L471.41 1084.02L478.19 1041.66L487.93 1041.66L494.71 1084.02ZM479.52 1070.58L485.93 1070.58L482.79 1049.16L482.67 1049.16L479.52 1070.58Z" />
				<path id="&lt;Compound Path&gt;" class="shp1" d="M507.72 1060.42L517.04 1060.42L517.04 1073.85C517.04 1080.63 513.65 1084.5 507.12 1084.5C500.58 1084.5 497.19 1080.63 497.19 1073.85L497.19 1051.82C497.19 1045.04 500.58 1041.17 507.12 1041.17C513.65 1041.17 517.04 1045.04 517.04 1051.82L517.04 1055.94L510.75 1055.94L510.75 1051.4C510.75 1048.37 509.41 1047.22 507.3 1047.22C505.18 1047.22 503.85 1048.37 503.85 1051.4L503.85 1074.27C503.85 1077.3 505.18 1078.39 507.3 1078.39C509.41 1078.39 510.75 1077.3 510.75 1074.27L510.75 1066.47L507.72 1066.47L507.72 1060.42Z" />
				<path id="&lt;Compound Path&gt;" class="shp1" d="M527.99 1059.51L537.13 1059.51L537.13 1065.56L527.99 1065.56L527.99 1077.97L539.49 1077.97L539.49 1084.02L521.34 1084.02L521.34 1041.66L539.49 1041.66L539.49 1047.71L527.99 1047.71L527.99 1059.51Z" />
				<path id="&lt;Compound Path&gt;" class="shp1" d="M559.04 1053.34L558.91 1053.34L558.91 1084.02L552.92 1084.02L552.92 1041.66L561.27 1041.66L567.99 1067.01L568.11 1067.01L568.11 1041.66L574.04 1041.66L574.04 1084.02L567.2 1084.02L559.04 1053.34Z" />
				<path id="&lt;Compound Path&gt;" fill-rule="evenodd" class="shp1" d="M578.28 1051.82C578.28 1045.04 581.85 1041.17 588.38 1041.17C594.92 1041.17 598.49 1045.04 598.49 1051.82L598.49 1073.85C598.49 1080.63 594.92 1084.5 588.38 1084.5C581.85 1084.5 578.28 1080.63 578.28 1073.85L578.28 1051.82ZM584.93 1074.27C584.93 1077.3 586.26 1078.45 588.38 1078.45C590.5 1078.45 591.83 1077.3 591.83 1074.27L591.83 1051.4C591.83 1048.37 590.5 1047.22 588.38 1047.22C586.26 1047.22 584.93 1048.37 584.93 1051.4L584.93 1074.27Z" />
				<path id="&lt;Compound Path&gt;" class="shp1" d="M600.85 1041.66L621.42 1041.66L621.42 1047.71L614.46 1047.71L614.46 1084.02L607.81 1084.02L607.81 1047.71L600.85 1047.71L600.85 1041.66Z" />
				<path id="&lt;Compound Path&gt;" class="shp1" d="M640.36 1060.48L648.96 1060.48L648.96 1066.53L640.36 1066.53L640.36 1084.02L633.71 1084.02L633.71 1041.66L651.32 1041.66L651.32 1047.71L640.36 1047.71L640.36 1060.48Z" />
				<path id="&lt;Compound Path&gt;" fill-rule="evenodd" class="shp1" d="M653.98 1051.82C653.98 1045.04 657.55 1041.17 664.08 1041.17C670.62 1041.17 674.19 1045.04 674.19 1051.82L674.19 1073.85C674.19 1080.63 670.62 1084.5 664.08 1084.5C657.55 1084.5 653.98 1080.63 653.98 1073.85L653.98 1051.82ZM660.63 1074.27C660.63 1077.3 661.97 1078.45 664.08 1078.45C666.2 1078.45 667.53 1077.3 667.53 1074.27L667.53 1051.4C667.53 1048.37 666.2 1047.22 664.08 1047.22C661.97 1047.22 660.63 1048.37 660.63 1051.4L660.63 1074.27Z" />
				<path id="&lt;Compound Path&gt;" class="shp1" d="M684.84 1041.66L684.84 1074.34C684.84 1077.36 686.17 1078.45 688.29 1078.45C690.41 1078.45 691.74 1077.36 691.74 1074.34L691.74 1041.66L698.03 1041.66L698.03 1073.91C698.03 1080.69 694.64 1084.56 688.11 1084.56C681.57 1084.56 678.18 1080.69 678.18 1073.91L678.18 1041.66L684.84 1041.66Z" />
				<path id="&lt;Compound Path&gt;" class="shp1" d="M708.62 1053.34L708.5 1053.34L708.5 1084.02L702.51 1084.02L702.51 1041.66L710.86 1041.66L717.58 1067.01L717.7 1067.01L717.7 1041.66L723.63 1041.66L723.63 1084.02L716.79 1084.02L708.62 1053.34Z" />
				<path id="&lt;Compound Path&gt;" fill-rule="evenodd" class="shp1" d="M728.41 1041.66L738.94 1041.66C745.59 1041.66 748.86 1045.35 748.86 1052.13L748.86 1073.55C748.86 1080.33 745.59 1084.02 738.94 1084.02L728.41 1084.02L728.41 1041.66ZM735.06 1047.71L735.06 1077.97L738.82 1077.97C740.93 1077.97 742.21 1076.88 742.21 1073.85L742.21 1051.82C742.21 1048.8 740.93 1047.71 738.82 1047.71L735.06 1047.71Z" />
			</g>
			<g id="&lt;Group&gt;">
				<path id="&lt;Compound Path&gt;" class="shp1" d="M462.62 112.04L476.25 112.04L476.25 121.07L462.62 121.07L462.62 139.58L479.77 139.58L479.77 148.6L452.69 148.6L452.69 85.4L479.77 85.4L479.77 94.43L462.62 94.43L462.62 112.04Z" />
				<path id="&lt;Compound Path&gt;" fill-rule="evenodd" class="shp1" d="M506.68 148.6C506.14 146.98 505.78 145.99 505.78 140.84L505.78 130.91C505.78 125.04 503.79 122.87 499.28 122.87L495.85 122.87L495.85 148.6L485.92 148.6L485.92 85.4L500.9 85.4C511.2 85.4 515.62 90.19 515.62 99.94L515.62 104.91C515.62 111.41 513.54 115.56 509.12 117.64L509.12 117.82C514.09 119.89 515.71 124.59 515.71 131.18L515.71 140.93C515.71 144 515.8 146.26 516.79 148.6L506.68 148.6ZM495.85 94.43L495.85 113.84L499.73 113.84C503.43 113.84 505.69 112.22 505.69 107.16L505.69 100.93C505.69 96.42 504.15 94.43 500.63 94.43L495.85 94.43Z" />
				<path id="&lt;Compound Path&gt;" fill-rule="evenodd" class="shp1" d="M542.98 148.6C542.44 146.98 542.08 145.99 542.08 140.84L542.08 130.91C542.08 125.04 540.09 122.87 535.58 122.87L532.15 122.87L532.15 148.6L522.21 148.6L522.21 85.4L537.2 85.4C547.49 85.4 551.92 90.19 551.92 99.94L551.92 104.91C551.92 111.41 549.84 115.56 545.42 117.64L545.42 117.82C550.38 119.89 552.01 124.59 552.01 131.18L552.01 140.93C552.01 144 552.1 146.26 553.09 148.6L542.98 148.6ZM532.15 94.43L532.15 113.84L536.03 113.84C539.73 113.84 541.99 112.22 541.99 107.16L541.99 100.93C541.99 96.42 540.45 94.43 536.93 94.43L532.15 94.43Z" />
				<path id="&lt;Compound Path&gt;" fill-rule="evenodd" class="shp1" d="M557.7 100.57C557.7 90.46 563.03 84.68 572.78 84.68C582.53 84.68 587.85 90.46 587.85 100.57L587.85 133.44C587.85 143.55 582.53 149.33 572.78 149.33C563.03 149.33 557.7 143.55 557.7 133.44L557.7 100.57ZM567.63 134.07C567.63 138.58 569.62 140.3 572.78 140.3C575.94 140.3 577.92 138.58 577.92 134.07L577.92 99.94C577.92 95.43 575.94 93.71 572.78 93.71C569.62 93.71 567.63 95.43 567.63 99.94L567.63 134.07Z" />
				<path id="&lt;Compound Path&gt;" fill-rule="evenodd" class="shp1" d="M615.03 148.6C614.49 146.98 614.13 145.99 614.13 140.84L614.13 130.91C614.13 125.04 612.14 122.87 607.63 122.87L604.2 122.87L604.2 148.6L594.27 148.6L594.27 85.4L609.25 85.4C619.55 85.4 623.97 90.19 623.97 99.94L623.97 104.91C623.97 111.41 621.89 115.56 617.47 117.64L617.47 117.82C622.44 119.89 624.06 124.59 624.06 131.18L624.06 140.93C624.06 144 624.15 146.26 625.14 148.6L615.03 148.6ZM604.2 94.43L604.2 113.84L608.08 113.84C611.78 113.84 614.04 112.22 614.04 107.16L614.04 100.93C614.04 96.42 612.51 94.43 608.98 94.43L604.2 94.43Z" />
				<path id="&lt;Compound Path&gt;" fill-rule="evenodd" class="shp1" d="M642.21 128.11L660.27 85.4L671.1 85.4L671.1 128.11L675.8 128.11L675.8 137.14L671.1 137.14L671.1 148.6L661.17 148.6L661.17 137.14L642.21 137.14L642.21 128.11ZM661.17 128.11L661.17 104.73L660.99 104.73L651.33 128.11L661.17 128.11Z" />
				<path id="&lt;Compound Path&gt;" fill-rule="evenodd" class="shp1" d="M679.5 100.57C679.5 90.46 684.83 84.68 694.58 84.68C704.33 84.68 709.66 90.46 709.66 100.57L709.66 133.44C709.66 143.55 704.33 149.33 694.58 149.33C684.83 149.33 679.5 143.55 679.5 133.44L679.5 100.57ZM689.44 134.07C689.44 138.58 691.42 140.3 694.58 140.3C697.74 140.3 699.73 138.58 699.73 134.07L699.73 99.94C699.73 95.43 697.74 93.71 694.58 93.71C691.42 93.71 689.44 95.43 689.44 99.94L689.44 134.07Z" />
				<path id="&lt;Compound Path&gt;" fill-rule="evenodd" class="shp1" d="M713.72 128.11L731.78 85.4L742.62 85.4L742.62 128.11L747.31 128.11L747.31 137.14L742.62 137.14L742.62 148.6L732.68 148.6L732.68 137.14L713.72 137.14L713.72 128.11ZM732.68 128.11L732.68 104.73L732.5 104.73L722.84 128.11L732.68 128.11Z" />
			</g>
			<path id="&lt;Path&gt;" class="shp2" d="M874.72 852.18C874.72 869.58 813.57 884.66 724.3 892.04C686.98 895.13 644.74 896.87 600 896.87C555.26 896.87 513.02 895.13 475.7 892.04C386.43 884.66 325.28 869.58 325.28 852.18C325.28 834.77 386.43 819.68 475.7 812.31C513.02 809.21 555.26 807.47 600 807.47C644.74 807.47 686.98 809.21 724.3 812.31C813.57 819.68 874.72 834.77 874.72 852.18Z" />
			<path id="&lt;Path&gt;" class="shp3" d="M724.3 749.33L724.3 892.04C686.98 895.13 644.74 896.87 600 896.87C555.26 896.87 513.02 895.13 475.7 892.04L475.7 749.33C475.7 680.67 531.35 625.03 600 625.03C634.32 625.03 665.4 638.94 687.89 661.43C710.4 683.92 724.3 715 724.3 749.33Z" />
			<g id="&lt;Group&gt;">
				<path id="&lt;Path&gt;" class="shp4" d="M682.29 778.97C682.29 794.71 669.52 807.47 653.78 807.47C638.03 807.47 625.27 794.71 625.27 778.97C625.27 763.22 638.03 750.46 653.78 750.46C669.52 750.46 682.29 763.22 682.29 778.97Z" />
				<path id="&lt;Path&gt;" class="shp5" d="M661.76 782.71C661.76 787.12 658.19 790.69 653.78 790.69C649.37 790.69 645.79 787.12 645.79 782.71C645.79 778.3 649.37 774.72 653.78 774.72C658.19 774.72 661.76 778.3 661.76 782.71Z" />
				<path id="&lt;Path&gt;" class="shp6" d="M574.73 778.97C574.73 794.71 561.97 807.47 546.22 807.47C530.48 807.47 517.71 794.71 517.71 778.97C517.71 763.22 530.48 750.46 546.22 750.46C561.97 750.46 574.73 763.22 574.73 778.97Z" />
				<path id="&lt;Path&gt;" class="shp7" d="M554.21 786.95C554.21 791.36 550.63 794.94 546.22 794.94C541.81 794.94 538.24 791.36 538.24 786.95C538.24 782.54 541.81 778.97 546.22 778.97C550.63 778.97 554.21 782.54 554.21 786.95Z" />
			</g>
			<g id="&lt;Group&gt;">
				<path id="&lt;Path&gt;" class="shp8" d="M790.51 670.8L399.56 793.48L401.17 695.24L402.16 634.1L402.54 611.66L404.34 501.61L405.7 418.03L407.38 316.13C407.5 308.23 412.67 301.3 420.22 298.93L491 276.72C498.54 274.35 506.74 277.09 511.36 283.49L570.95 366.17L619.83 433.99L684.18 523.28L697.31 541.48L733.06 591.09L790.51 670.8Z" />
				<path id="&lt;Path&gt;" class="shp9" d="M870.04 680.61L339.9 846.97C331.15 849.71 321.84 844.85 319.1 836.11L319.1 836.11C316.36 827.37 321.22 818.06 329.96 815.31L860.1 648.95C868.85 646.21 878.16 651.07 880.9 659.82L880.9 659.82C883.64 668.56 878.78 677.87 870.04 680.61Z" />
				<path id="&lt;Path&gt;" class="shp10" d="M619.83 433.98L404.34 501.6L405.7 418.02L570.95 366.17L619.83 433.98Z" />
				<path id="&lt;Path&gt;" class="shp11" d="M733.06 591.09L401.17 695.23L402.53 611.65L684.18 523.27L733.06 591.09Z" />
				<path id="&lt;Path&gt;" class="shp12" d="M790.51 670.8L399.56 793.48L401.17 695.24L402.16 634.1L697.31 541.48L733.06 591.09L790.51 670.8Z" />
			</g>
		</g>
	</g>
</svg>